HIERARCHY
ROOT Pelvis
{
	OFFSET 0.000000 0.000000 0.000000
	CHANNELS 6 Xposition Yposition Zposition Xrotation Yrotation Zrotation
	JOINT LeftUpLeg_virtual
	{
		OFFSET 0.000000 0.000000 0.000000
		CHANNELS 3 Xrotation Yrotation Zrotation
		JOINT LeftUpLeg
		{
			OFFSET 18.735201 -5.666702 -4.541200
			CHANNELS 3 Xrotation Yrotation Zrotation
			JOINT LeftLeg
			{
				OFFSET -0.021200 -31.938179 0.493100
				CHANNELS 3 Xrotation Yrotation Zrotation
				JOINT LeftFoot
				{
					OFFSET 0.021200 -31.938179 -4.336299
					CHANNELS 3 Xrotation Yrotation Zrotation
					JOINT LeftToeBase
					{
						OFFSET 0.943001 -26.722000 15.023500
						CHANNELS 3 Xrotation Yrotation Zrotation
						End Site
						{
							OFFSET 0 0 0
						}
					}
				}
			}
		}
	}
	JOINT RightUpLeg_virtual
	{
		OFFSET 0.000000 0.000000 0.000000
		CHANNELS 3 Xrotation Yrotation Zrotation
		JOINT RightUpLeg
		{
			OFFSET -18.735201 -5.666702 -4.541200
			CHANNELS 3 Xrotation Yrotation Zrotation
			JOINT RightLeg
			{
				OFFSET 0.018946 -31.938133 0.493100
				CHANNELS 3 Xrotation Yrotation Zrotation
				JOINT RightFoot
				{
					OFFSET -0.018946 -31.938126 -4.336299
					CHANNELS 3 Xrotation Yrotation Zrotation
					JOINT RightToeBase
					{
						OFFSET -0.943001 -26.722004 15.023500
						CHANNELS 3 Xrotation Yrotation Zrotation
						End Site
						{
							OFFSET 0 0 0
						}
					}
				}
			}
		}
	}
	JOINT Hips_virtual
	{
		OFFSET 0.000000 0.000000 0.000000
		CHANNELS 3 Xrotation Yrotation Zrotation
		JOINT Hips
		{
			OFFSET -0.000000 -0.000000 -0.000000
			CHANNELS 3 Xrotation Yrotation Zrotation
			JOINT Spine
			{
				OFFSET 0.000000 10.199997 -0.299500
				CHANNELS 3 Xrotation Yrotation Zrotation
				JOINT Spine1
				{
					OFFSET 0.000000 11.900002 -1.516600
					CHANNELS 3 Xrotation Yrotation Zrotation
					JOINT Spine2
					{
						OFFSET 0.000000 13.600006 -2.842500
						CHANNELS 3 Xrotation Yrotation Zrotation
						JOINT Neck_virtual
						{
							OFFSET 0.000000 0.000000 0.000000
							CHANNELS 3 Xrotation Yrotation Zrotation
							JOINT Neck
							{
								OFFSET 0.000000 9.624100 -2.890100
								CHANNELS 3 Xrotation Yrotation Zrotation
								JOINT Head
								{
									OFFSET 0.000000 14.068802 -1.351900
									CHANNELS 3 Xrotation Yrotation Zrotation
									End Site
									{
										OFFSET 0 0 0
									}
								}
							}
						}
						JOINT LeftShoulder_virtual
						{
							OFFSET 0.000000 0.000000 0.000000
							CHANNELS 3 Xrotation Yrotation Zrotation
							JOINT LeftShoulder
							{
								OFFSET 15.263000 10.923401 -0.547700
								CHANNELS 3 Xrotation Yrotation Zrotation
								JOINT LeftArm
								{
									OFFSET 25.438599 -2.830597 -13.032500
									CHANNELS 3 Xrotation Yrotation Zrotation
									JOINT LeftForeArm
									{
										OFFSET 29.960503 0.000000 0.000000
										CHANNELS 3 Xrotation Yrotation Zrotation
										JOINT LeftHand
										{
											OFFSET 27.849251 0.000000 0.000000
											CHANNELS 3 Xrotation Yrotation Zrotation
											End Site
											{
												OFFSET 0 0 0
											}
										}
									}
								}
							}
						}
						JOINT RightShoulder_virtual
						{
							OFFSET 0.000000 0.000000 0.000000
							CHANNELS 3 Xrotation Yrotation Zrotation
							JOINT RightShoulder
							{
								OFFSET -15.263000 10.923401 -0.547700
								CHANNELS 3 Xrotation Yrotation Zrotation
								JOINT RightArm
								{
									OFFSET -25.438599 -2.830597 -13.032500
									CHANNELS 3 Xrotation Yrotation Zrotation
									JOINT RightForeArm
									{
										OFFSET -29.960503 0.000000 0.000000
										CHANNELS 3 Xrotation Yrotation Zrotation
										JOINT RightHand
										{
											OFFSET -27.849251 0.000000 0.000000
											CHANNELS 3 Xrotation Yrotation Zrotation
											End Site
											{
												OFFSET 0 0 0
											}
										}
									}
								}
							}
						}
					}
				}
			}
		}
	}
}
MOTION
Frames: 10
Frame Time: 0.03333333
0.817557 92.739258 1.160500 0.000000 0.000000 0.000000 4.186528 -3.572989 -3.706037 -36.500760 10.743585 13.435552 42.546929 15.902707 -7.262819 -9.569705 18.458917 -5.209897 0.000000 0.000000 0.000000 6.826549 -8.576411 4.682081 -21.858842 -8.374309 -10.875831 35.071191 -14.628440 1.154432 -16.469333 -18.114536 3.586812 0.000000 0.000000 0.000000 -5.573964 -5.962929 0.473535 -13.851502 8.201081 0.189685 8.700858 -3.115108 -0.698803 3.626952 -1.648312 -0.909618 0.000000 0.000000 0.000000 4.338055 -1.337856 -0.340022 0.412900 -0.392890 -0.462226 0.000000 0.000000 0.000000 3.928387 -2.595461 -0.434188 1.008475 -13.361592 -9.282907 -22.374093 -9.636774 -45.238501 -4.207904 -48.814491 -2.970203 0.000000 0.000000 0.000000 4.211930 -1.010576 1.266092 2.454426 6.098329 9.461137 -6.847099 -1.673200 49.611762 -1.462937 43.137931 3.649247 0.000000 0.000000 0.000000 
-0.050614 92.864357 1.101141 0.000000 0.000000 0.000000 5.257273 -6.508095 -3.969482 -34.956775 10.422947 12.719416 42.523200 17.775275 -7.857132 -10.320986 20.247865 -4.771575 0.000000 0.000000 0.000000 7.979370 -9.079331 5.068559 -20.160492 -8.781599 -10.452694 32.525538 -16.255785 1.399270 -18.735651 -19.728687 3.087981 0.000000 0.000000 0.000000 -6.447357 -8.322495 0.314466 -13.215065 9.008924 1.242265 9.213174 -3.637312 -0.737984 3.958887 -1.648207 -0.572328 0.000000 0.000000 0.000000 4.122193 -1.344534 -0.400423 0.318624 -0.217219 -0.507613 0.000000 0.000000 0.000000 3.629944 -2.860537 -0.502664 1.656967 -13.131401 -10.345340 -21.366112 -9.297615 -44.683070 -3.336227 -47.367796 -2.641831 0.000000 0.000000 0.000000 3.916110 -0.925939 1.342102 2.337476 7.054252 9.671668 -7.415793 -2.474115 50.690590 -2.708441 44.507101 4.974002 0.000000 0.000000 0.000000 
0.512453 92.278671 2.604488 0.000000 0.000000 0.000000 6.346154 -6.684108 -2.746105 -33.184389 10.136635 13.656533 43.582119 17.803569 -8.021985 -9.423337 20.415794 -4.924848 0.000000 0.000000 0.000000 9.311903 -8.476288 4.985644 -18.158060 -8.776600 -10.477482 34.049142 -16.436997 1.851260 -17.720004 -19.997942 3.458436 0.000000 0.000000 0.000000 -5.195018 -9.026728 1.282434 -15.631404 9.978234 1.626009 10.662877 -3.847481 -0.864886 3.772057 -1.793510 -0.069368 0.000000 0.000000 0.000000 4.171573 -1.455610 -0.172053 0.231184 -0.177501 -0.513249 0.000000 0.000000 0.000000 3.610836 -2.779532 -0.375703 1.662493 -14.205269 -10.740947 -21.405014 -9.504424 -43.304670 -3.053780 -45.953123 -2.210637 0.000000 0.000000 0.000000 3.940432 -0.839512 1.342938 2.685778 6.901622 9.052105 -6.903863 -2.004523 52.536480 -3.232190 45.387095 5.671451 0.000000 0.000000 0.000000 
-0.387269 92.712944 2.390968 0.000000 0.000000 0.000000 6.394400 -7.398672 -1.747128 -33.395558 9.644208 14.761432 45.018590 17.052406 -8.662965 -8.154546 20.022098 -6.263255 0.000000 0.000000 0.000000 9.775169 -7.859196 5.027689 -17.483353 -8.680726 -10.348952 34.200881 -16.686075 2.121512 -17.684043 -20.319680 3.660644 0.000000 0.000000 0.000000 -6.357704 -8.639834 0.323331 -13.209396 8.977187 -0.687819 9.956060 -4.089159 -0.332974 4.132832 -1.558928 -0.274548 0.000000 0.000000 0.000000 4.011656 -1.442868 -0.068178 0.258634 -0.212122 -0.503574 0.000000 0.000000 0.000000 3.761099 -3.086444 -0.595244 1.438674 -13.378351 -11.246846 -22.067013 -9.543289 -43.560993 -3.359437 -46.830711 -2.759834 0.000000 0.000000 0.000000 4.009411 -0.640475 1.470316 2.602353 7.535700 10.148198 -7.646912 -1.693893 52.935441 -3.686874 46.044740 6.392800 0.000000 0.000000 0.000000 
-0.111890 92.460693 2.459450 0.000000 0.000000 0.000000 5.913106 -7.691692 -1.234787 -33.758483 9.242907 15.203974 45.197209 16.941654 -8.615802 -7.726666 19.995005 -6.322769 0.000000 0.000000 0.000000 9.501789 -9.310361 5.343639 -17.806792 -9.098111 -10.062790 33.727310 -16.434410 2.017686 -18.128970 -19.996043 3.692331 0.000000 0.000000 0.000000 -5.268959 -8.603188 0.345663 -14.748776 7.652171 -1.525807 10.807439 -3.834431 -0.914453 3.701900 -1.605585 -0.070220 0.000000 0.000000 0.000000 3.889619 -1.558516 -0.041028 0.051042 -0.061076 -0.509332 0.000000 0.000000 0.000000 3.740601 -3.393154 -0.554843 1.052516 -13.493711 -12.088288 -24.002613 -10.126680 -42.527101 -4.026181 -46.996715 -3.022125 0.000000 0.000000 0.000000 3.892279 -0.690395 1.576287 2.970226 8.490391 9.357725 -6.655465 -2.049444 52.804425 -4.129970 48.509298 6.832933 0.000000 0.000000 0.000000 
-0.230124 92.761429 1.968447 0.000000 0.000000 0.000000 5.115366 -8.919770 -1.739351 -35.094407 8.992915 14.810603 45.882260 16.174677 -8.397556 -6.897259 19.246821 -6.535081 0.000000 0.000000 0.000000 9.848364 -10.098324 5.815928 -17.389001 -9.435644 -9.625629 33.403351 -16.731042 1.905463 -18.554617 -20.144367 3.343384 0.000000 0.000000 0.000000 -6.955510 -10.729147 0.512916 -13.688309 10.528081 0.302110 8.879092 -4.418580 -0.740416 3.670703 -1.367278 0.067080 0.000000 0.000000 0.000000 3.473032 -1.412486 -0.129256 0.276662 -0.109666 -0.588854 0.000000 0.000000 0.000000 3.400084 -3.151234 -0.384945 1.324848 -13.255312 -10.891977 -24.051376 -9.731426 -41.535306 -3.046337 -47.482311 -2.198955 0.000000 0.000000 0.000000 3.838435 -0.775848 1.711961 3.123144 7.547295 9.712541 -6.263126 -1.928037 54.055859 -2.931486 45.529833 6.659955 0.000000 0.000000 0.000000 
-0.762580 92.634140 2.863575 0.000000 0.000000 0.000000 5.150381 -10.804622 -1.648939 -34.714621 8.491356 14.555259 48.454083 14.807282 -8.670783 -4.437999 18.181151 -7.728349 0.000000 0.000000 0.000000 9.367485 -11.245852 6.155802 -18.005115 -9.713760 -9.273192 32.745027 -16.515614 1.226201 -18.770600 -19.763926 2.405725 0.000000 0.000000 0.000000 -7.510659 -10.315472 0.172203 -14.883370 8.954626 -0.138058 8.420107 -3.869248 -0.711484 3.861691 -1.898966 0.047682 0.000000 0.000000 0.000000 4.050671 -1.538781 -0.000997 0.478663 -0.122096 -0.565503 0.000000 0.000000 0.000000 3.354157 -3.180907 -0.418683 1.038143 -14.147660 -11.148660 -24.233783 -10.044850 -41.431016 -3.350706 -47.948013 -2.612783 0.000000 0.000000 0.000000 4.142663 -0.792044 1.724587 3.610099 6.830394 9.999244 -5.291079 -2.530272 53.380835 -2.633522 44.967500 6.302581 0.000000 0.000000 0.000000 
-0.760949 92.005615 2.868740 0.000000 0.000000 0.000000 3.844896 -12.107121 -1.427427 -36.224663 7.747764 14.734772 49.227120 13.213797 -7.896487 -3.509409 16.392659 -7.741096 0.000000 0.000000 0.000000 9.538205 -11.647558 6.765921 -17.698943 -9.995255 -8.567273 33.268660 -16.098932 1.764873 -18.321781 -19.589678 3.431055 0.000000 0.000000 0.000000 -8.098035 -13.744410 -0.204392 -12.563938 10.286542 0.394400 9.476428 -3.784113 -0.472937 3.706348 -1.788226 -0.196107 0.000000 0.000000 0.000000 3.904142 -1.554283 0.079678 0.465405 -0.083176 -0.488328 0.000000 0.000000 0.000000 3.484275 -3.297580 -0.383541 1.157421 -13.222996 -10.992036 -23.729973 -9.364864 -40.363157 -3.184562 -47.334509 -2.201444 0.000000 0.000000 0.000000 4.236018 -0.616821 1.648071 3.141046 7.495952 10.047939 -4.753101 -4.157945 54.110770 -3.013094 45.894152 6.948648 0.000000 0.000000 0.000000 
-1.386837 92.284943 2.729116 0.000000 0.000000 0.000000 3.679104 -12.251459 -1.178776 -36.593251 7.585629 15.065758 50.395287 11.808852 -7.337642 -2.315137 14.833306 -7.879096 0.000000 0.000000 0.000000 10.296873 -11.890697 7.646990 -16.785140 -10.323208 -7.689006 32.084025 -15.504606 1.374142 -19.193335 -18.891637 3.317349 0.000000 0.000000 0.000000 -7.791828 -13.375676 0.268363 -14.203565 9.513426 0.504837 9.453685 -3.886344 -0.845175 3.772626 -1.742965 -0.147521 0.000000 0.000000 0.000000 3.807626 -1.412505 -0.000381 0.498252 -0.028791 -0.575206 0.000000 0.000000 0.000000 3.409318 -3.163228 -0.333006 1.315590 -13.169592 -10.630307 -24.070475 -9.728085 -39.270395 -2.918634 -46.754636 -1.865334 0.000000 0.000000 0.000000 3.830867 -0.783692 1.671056 3.160311 7.397433 9.717270 -5.500606 -3.911017 54.391832 -2.930132 45.158052 6.930322 0.000000 0.000000 0.000000 
-1.427620 91.886345 3.400515 0.000000 0.000000 0.000000 3.224044 -13.474969 -1.708948 -37.077815 7.386743 14.434923 49.599850 10.296705 -6.608138 -2.566956 13.087467 -8.020826 0.000000 0.000000 0.000000 10.426379 -12.464839 7.436121 -16.648371 -10.461018 -7.988948 32.584661 -14.938013 1.155520 -18.662380 -18.300693 3.260070 0.000000 0.000000 0.000000 -7.915359 -13.686304 0.555495 -13.538628 9.165700 0.667510 10.033813 -3.870272 -1.012590 4.047918 -1.737502 -0.240482 0.000000 0.000000 0.000000 4.104393 -1.457751 -0.006232 0.660986 -0.060524 -0.650457 0.000000 0.000000 0.000000 3.592791 -3.127459 -0.171886 1.559804 -12.518792 -10.751168 -23.889913 -9.733421 -38.510748 -3.154580 -47.645364 -1.883280 0.000000 0.000000 0.000000 4.211055 -0.706247 1.705186 3.319017 7.223084 9.210226 -6.275577 -4.005234 54.852764 -3.158555 46.394292 7.150460 0.000000 0.000000 0.000000 
